
    <svg
      width="103"
      height="42"
      viewBox="0 0 103 42"
      fill="none"
      xmlns="http://www.w3.org/2000/svg"
    >
      <path
        d="M13.1797 12.7852L6.93945 33H0.3125L9.7168 7.40625H13.918L13.1797 12.7852ZM18.3477 33L12.0898 12.7852L11.2812 7.40625H15.5352L24.9922 33H18.3477ZM18.1016 23.4551V28.2188H4.9707V23.4551H18.1016ZM36.5586 27.6562C36.5586 27.3281 36.4473 27.0469 36.2246 26.8125C36.0137 26.5664 35.6387 26.3438 35.0996 26.1445C34.5605 25.9336 33.8047 25.7227 32.832 25.5117C31.9062 25.3125 31.0332 25.0488 30.2129 24.7207C29.4043 24.3926 28.6953 23.9941 28.0859 23.5254C27.4766 23.0566 26.9961 22.5 26.6445 21.8555C26.3047 21.2109 26.1348 20.4727 26.1348 19.6406C26.1348 18.832 26.3047 18.0703 26.6445 17.3555C26.9961 16.6289 27.5059 15.9902 28.1738 15.4395C28.8535 14.877 29.6797 14.4375 30.6523 14.1211C31.625 13.793 32.7324 13.6289 33.9746 13.6289C35.6855 13.6289 37.1621 13.8926 38.4043 14.4199C39.6465 14.9355 40.6016 15.6621 41.2695 16.5996C41.9492 17.5254 42.2891 18.5977 42.2891 19.8164H36.3652C36.3652 19.3359 36.2832 18.9258 36.1191 18.5859C35.9668 18.2461 35.7148 17.9883 35.3633 17.8125C35.0117 17.625 34.543 17.5312 33.957 17.5312C33.5469 17.5312 33.1719 17.6074 32.832 17.7598C32.5039 17.9121 32.2402 18.123 32.041 18.3926C31.8418 18.6621 31.7422 18.9785 31.7422 19.3418C31.7422 19.5996 31.8008 19.834 31.918 20.0449C32.0469 20.2441 32.2402 20.4316 32.498 20.6074C32.7559 20.7715 33.084 20.9238 33.4824 21.0645C33.8809 21.1934 34.3613 21.3105 34.9238 21.416C36.2012 21.6504 37.3965 21.9844 38.5098 22.418C39.623 22.8516 40.5254 23.4668 41.2168 24.2637C41.9199 25.0605 42.2715 26.1328 42.2715 27.4805C42.2715 28.3242 42.0781 29.1035 41.6914 29.8184C41.3047 30.5215 40.748 31.1426 40.0215 31.6816C39.2949 32.209 38.4219 32.6191 37.4023 32.9121C36.3828 33.2051 35.2344 33.3516 33.957 33.3516C32.1406 33.3516 30.6055 33.0293 29.3516 32.3848C28.0977 31.7285 27.1484 30.9082 26.5039 29.9238C25.8711 28.9277 25.5547 27.9199 25.5547 26.9004H31.0742C31.0977 27.4863 31.2383 27.9668 31.4961 28.3418C31.7656 28.7168 32.123 28.9922 32.5684 29.168C33.0137 29.3438 33.5293 29.4316 34.1152 29.4316C34.6543 29.4316 35.0996 29.3555 35.4512 29.2031C35.8145 29.0508 36.0898 28.8457 36.2773 28.5879C36.4648 28.3184 36.5586 28.0078 36.5586 27.6562ZM50.8496 6V33H44.9258V6H50.8496ZM50.1465 22.8398L48.7578 22.875C48.7578 21.5391 48.9219 20.3086 49.25 19.1836C49.5781 18.0586 50.0469 17.0801 50.6562 16.248C51.2656 15.416 51.998 14.7715 52.8535 14.3145C53.709 13.8574 54.6582 13.6289 55.7012 13.6289C56.6387 13.6289 57.4941 13.7637 58.2676 14.0332C59.0527 14.3027 59.7266 14.7363 60.2891 15.334C60.8633 15.9316 61.3027 16.7109 61.6074 17.6719C61.9238 18.6328 62.082 19.8047 62.082 21.1875V33H56.123V21.1523C56.123 20.3789 56.0117 19.7812 55.7891 19.3594C55.5781 18.9258 55.2734 18.627 54.875 18.4629C54.4766 18.2871 53.9902 18.1992 53.416 18.1992C52.7246 18.1992 52.1621 18.3164 51.7285 18.5508C51.2949 18.7852 50.9609 19.1133 50.7266 19.5352C50.5039 19.9453 50.3516 20.4316 50.2695 20.9941C50.1875 21.5566 50.1465 22.1719 50.1465 22.8398ZM71.2051 30.7676L76.127 13.9805H82.4902L74.8438 35.8301C74.6797 36.3105 74.4629 36.8262 74.1934 37.377C73.9238 37.9395 73.5547 38.4727 73.0859 38.9766C72.6172 39.4805 72.0137 39.8906 71.2754 40.207C70.5488 40.5234 69.6465 40.6816 68.5684 40.6816C67.9941 40.6816 67.5723 40.6523 67.3027 40.5938C67.0449 40.5469 66.6465 40.459 66.1074 40.3301V36.0938C66.2598 36.0938 66.3887 36.0938 66.4941 36.0938C66.6113 36.0938 66.7402 36.0938 66.8809 36.0938C67.5137 36.0938 68.0176 36.0293 68.3926 35.9004C68.7793 35.7715 69.0723 35.584 69.2715 35.3379C69.4824 35.0918 69.6465 34.793 69.7637 34.4414L71.2051 30.7676ZM69.957 13.9805L73.7012 27.2871L74.3516 33.5625H70.3789L63.6113 13.9805H69.957ZM83.0176 23.6836V23.3145C83.0176 21.9199 83.2168 20.6367 83.6152 19.4648C84.0137 18.2812 84.5996 17.2559 85.373 16.3887C86.1465 15.5215 87.1016 14.8477 88.2383 14.3672C89.375 13.875 90.6875 13.6289 92.1758 13.6289C93.6758 13.6289 94.9941 13.875 96.1309 14.3672C97.2793 14.8477 98.2402 15.5215 99.0137 16.3887C99.7871 17.2559 100.373 18.2812 100.771 19.4648C101.17 20.6367 101.369 21.9199 101.369 23.3145V23.6836C101.369 25.0664 101.17 26.3496 100.771 27.5332C100.373 28.7051 99.7871 29.7305 99.0137 30.6094C98.2402 31.4766 97.2852 32.1504 96.1484 32.6309C95.0117 33.1113 93.6992 33.3516 92.2109 33.3516C90.7227 33.3516 89.4043 33.1113 88.2559 32.6309C87.1074 32.1504 86.1465 31.4766 85.373 30.6094C84.5996 29.7305 84.0137 28.7051 83.6152 27.5332C83.2168 26.3496 83.0176 25.0664 83.0176 23.6836ZM88.9414 23.3145V23.6836C88.9414 24.3984 88.9941 25.0664 89.0996 25.6875C89.2051 26.3086 89.3809 26.8535 89.627 27.3223C89.873 27.7793 90.207 28.1367 90.6289 28.3945C91.0508 28.6523 91.5781 28.7812 92.2109 28.7812C92.832 28.7812 93.3477 28.6523 93.7578 28.3945C94.1797 28.1367 94.5137 27.7793 94.7598 27.3223C95.0059 26.8535 95.1816 26.3086 95.2871 25.6875C95.3926 25.0664 95.4453 24.3984 95.4453 23.6836V23.3145C95.4453 22.623 95.3926 21.9727 95.2871 21.3633C95.1816 20.7422 95.0059 20.1973 94.7598 19.7285C94.5137 19.248 94.1797 18.873 93.7578 18.6035C93.3359 18.334 92.8086 18.1992 92.1758 18.1992C91.5547 18.1992 91.0332 18.334 90.6113 18.6035C90.2012 18.873 89.873 19.248 89.627 19.7285C89.3809 20.1973 89.2051 20.7422 89.0996 21.3633C88.9941 21.9727 88.9414 22.623 88.9414 23.3145Z"
        fill="#134E9B"
      />
    </svg>
