<svg width="16" height="24" viewBox="0 0 16 24" fill="none" xmlns="http://www.w3.org/2000/svg">
<path d="M12.5 1.5C12.8978 1.5 13.2794 1.65804 13.5607 1.93934C13.842 2.22064 14 2.60218 14 3V21C14 21.3978 13.842 21.7794 13.5607 22.0607C13.2794 22.342 12.8978 22.5 12.5 22.5H3.5C3.10218 22.5 2.72064 22.342 2.43934 22.0607C2.15804 21.7794 2 21.3978 2 21V3C2 2.60218 2.15804 2.22064 2.43934 1.93934C2.72064 1.65804 3.10218 1.5 3.5 1.5H12.5ZM3.5 0C2.70435 0 1.94129 0.316071 1.37868 0.87868C0.81607 1.44129 0.5 2.20435 0.5 3V21C0.5 21.7957 0.81607 22.5587 1.37868 23.1213C1.94129 23.6839 2.70435 24 3.5 24H12.5C13.2956 24 14.0587 23.6839 14.6213 23.1213C15.1839 22.5587 15.5 21.7957 15.5 21V3C15.5 2.20435 15.1839 1.44129 14.6213 0.87868C14.0587 0.316071 13.2956 0 12.5 0L3.5 0Z" fill="black"/>
<path d="M8.16927 21.6667C8.39028 21.6667 8.60225 21.5789 8.75853 21.4226C8.91481 21.2663 9.0026 21.0543 9.0026 20.8333C9.0026 20.6123 8.91481 20.4004 8.75853 20.2441C8.60225 20.0878 8.39028 20 8.16927 20C7.94826 20 7.7363 20.0878 7.58002 20.2441C7.42374 20.4004 7.33594 20.6123 7.33594 20.8333C7.33594 21.0543 7.42374 21.2663 7.58002 21.4226C7.7363 21.5789 7.94826 21.6667 8.16927 21.6667Z" fill="black"/>
</svg>
